<mxfile host="app.diagrams.net" modified="2023-10-27T07:46:57.024Z" agent="Mozilla/5.0 (Windows NT 10.0; Win64; x64) AppleWebKit/537.36 (KHTML, like Gecko) Chrome/118.0.0.0 Safari/537.36" etag="S6jRWTSEtamiS84G4PEg" version="22.0.8" type="device">
  <diagram name="Сторінка-1" id="7-zkndZKmsgm1rT5ontS">
    <mxGraphModel dx="743" dy="425" grid="1" gridSize="10" guides="1" tooltips="1" connect="1" arrows="1" fold="1" page="1" pageScale="1" pageWidth="827" pageHeight="1169" math="0" shadow="0">
      <root>
        <mxCell id="0" />
        <mxCell id="1" parent="0" />
        <mxCell id="Pr53PB6UrvoUQkxMurR7-13" style="rounded=0;orthogonalLoop=1;jettySize=auto;html=1;entryX=0.5;entryY=0;entryDx=0;entryDy=0;dashed=1;dashPattern=12 12;endArrow=none;endFill=0;" edge="1" parent="1" source="Pr53PB6UrvoUQkxMurR7-1" target="Pr53PB6UrvoUQkxMurR7-4">
          <mxGeometry relative="1" as="geometry" />
        </mxCell>
        <mxCell id="Pr53PB6UrvoUQkxMurR7-14" style="rounded=0;orthogonalLoop=1;jettySize=auto;html=1;entryX=0.5;entryY=0;entryDx=0;entryDy=0;endArrow=none;endFill=0;dashed=1;dashPattern=12 12;" edge="1" parent="1" source="Pr53PB6UrvoUQkxMurR7-1" target="Pr53PB6UrvoUQkxMurR7-5">
          <mxGeometry relative="1" as="geometry" />
        </mxCell>
        <mxCell id="Pr53PB6UrvoUQkxMurR7-1" value="Е" style="text;html=1;strokeColor=none;fillColor=none;align=center;verticalAlign=middle;whiteSpace=wrap;rounded=0;dashed=1;" vertex="1" parent="1">
          <mxGeometry x="260" y="170" width="60" height="30" as="geometry" />
        </mxCell>
        <mxCell id="Pr53PB6UrvoUQkxMurR7-2" value="Е" style="text;html=1;strokeColor=none;fillColor=none;align=center;verticalAlign=middle;whiteSpace=wrap;rounded=0;" vertex="1" parent="1">
          <mxGeometry x="384" y="190" width="60" height="30" as="geometry" />
        </mxCell>
        <mxCell id="Pr53PB6UrvoUQkxMurR7-3" value="Е" style="text;html=1;strokeColor=none;fillColor=none;align=center;verticalAlign=middle;whiteSpace=wrap;rounded=0;" vertex="1" parent="1">
          <mxGeometry x="500" y="160" width="60" height="30" as="geometry" />
        </mxCell>
        <mxCell id="Pr53PB6UrvoUQkxMurR7-28" style="rounded=0;orthogonalLoop=1;jettySize=auto;html=1;endArrow=none;endFill=0;exitX=0.5;exitY=1;exitDx=0;exitDy=0;entryX=1;entryY=0;entryDx=0;entryDy=0;" edge="1" parent="1" source="Pr53PB6UrvoUQkxMurR7-6" target="Pr53PB6UrvoUQkxMurR7-23">
          <mxGeometry relative="1" as="geometry">
            <mxPoint x="310" y="380" as="targetPoint" />
          </mxGeometry>
        </mxCell>
        <mxCell id="Pr53PB6UrvoUQkxMurR7-38" style="rounded=0;orthogonalLoop=1;jettySize=auto;html=1;entryX=0.5;entryY=0;entryDx=0;entryDy=0;endArrow=none;endFill=0;" edge="1" parent="1" source="Pr53PB6UrvoUQkxMurR7-4" target="Pr53PB6UrvoUQkxMurR7-27">
          <mxGeometry relative="1" as="geometry" />
        </mxCell>
        <mxCell id="Pr53PB6UrvoUQkxMurR7-4" value="П1" style="ellipse;whiteSpace=wrap;html=1;aspect=fixed;" vertex="1" parent="1">
          <mxGeometry x="230" y="280" width="30" height="30" as="geometry" />
        </mxCell>
        <mxCell id="Pr53PB6UrvoUQkxMurR7-36" style="rounded=0;orthogonalLoop=1;jettySize=auto;html=1;endArrow=none;endFill=0;" edge="1" parent="1">
          <mxGeometry relative="1" as="geometry">
            <mxPoint x="410" y="400" as="targetPoint" />
            <mxPoint x="295" y="300" as="sourcePoint" />
            <Array as="points">
              <mxPoint x="330" y="360" />
            </Array>
          </mxGeometry>
        </mxCell>
        <mxCell id="Pr53PB6UrvoUQkxMurR7-5" value="П2" style="ellipse;whiteSpace=wrap;html=1;aspect=fixed;" vertex="1" parent="1">
          <mxGeometry x="280" y="270" width="30" height="30" as="geometry" />
        </mxCell>
        <mxCell id="Pr53PB6UrvoUQkxMurR7-6" value="П3" style="ellipse;whiteSpace=wrap;html=1;aspect=fixed;" vertex="1" parent="1">
          <mxGeometry x="330" y="260" width="30" height="30" as="geometry" />
        </mxCell>
        <mxCell id="Pr53PB6UrvoUQkxMurR7-39" style="rounded=0;orthogonalLoop=1;jettySize=auto;html=1;exitX=0.5;exitY=1;exitDx=0;exitDy=0;endArrow=none;endFill=0;" edge="1" parent="1" source="Pr53PB6UrvoUQkxMurR7-7">
          <mxGeometry relative="1" as="geometry">
            <mxPoint x="470" y="400" as="targetPoint" />
          </mxGeometry>
        </mxCell>
        <mxCell id="Pr53PB6UrvoUQkxMurR7-7" value="П4" style="ellipse;whiteSpace=wrap;html=1;aspect=fixed;" vertex="1" parent="1">
          <mxGeometry x="354" y="290" width="30" height="30" as="geometry" />
        </mxCell>
        <mxCell id="Pr53PB6UrvoUQkxMurR7-34" style="rounded=0;orthogonalLoop=1;jettySize=auto;html=1;endArrow=none;endFill=0;entryX=0.5;entryY=0;entryDx=0;entryDy=0;" edge="1" parent="1" source="Pr53PB6UrvoUQkxMurR7-8" target="Pr53PB6UrvoUQkxMurR7-26">
          <mxGeometry relative="1" as="geometry">
            <mxPoint x="390" y="340" as="targetPoint" />
            <Array as="points">
              <mxPoint x="410" y="330" />
            </Array>
          </mxGeometry>
        </mxCell>
        <mxCell id="Pr53PB6UrvoUQkxMurR7-8" value="П5" style="ellipse;whiteSpace=wrap;html=1;aspect=fixed;" vertex="1" parent="1">
          <mxGeometry x="400" y="280" width="30" height="30" as="geometry" />
        </mxCell>
        <mxCell id="Pr53PB6UrvoUQkxMurR7-9" value="П6" style="ellipse;whiteSpace=wrap;html=1;aspect=fixed;" vertex="1" parent="1">
          <mxGeometry x="444" y="290" width="30" height="30" as="geometry" />
        </mxCell>
        <mxCell id="Pr53PB6UrvoUQkxMurR7-10" value="П7" style="ellipse;whiteSpace=wrap;html=1;aspect=fixed;" vertex="1" parent="1">
          <mxGeometry x="500" y="280" width="30" height="30" as="geometry" />
        </mxCell>
        <mxCell id="Pr53PB6UrvoUQkxMurR7-41" style="rounded=0;orthogonalLoop=1;jettySize=auto;html=1;exitX=0.5;exitY=1;exitDx=0;exitDy=0;endArrow=none;endFill=0;" edge="1" parent="1" source="Pr53PB6UrvoUQkxMurR7-11">
          <mxGeometry relative="1" as="geometry">
            <mxPoint x="420" y="420" as="targetPoint" />
          </mxGeometry>
        </mxCell>
        <mxCell id="Pr53PB6UrvoUQkxMurR7-11" value="П8" style="ellipse;whiteSpace=wrap;html=1;aspect=fixed;" vertex="1" parent="1">
          <mxGeometry x="550" y="280" width="30" height="30" as="geometry" />
        </mxCell>
        <mxCell id="Pr53PB6UrvoUQkxMurR7-40" style="rounded=0;orthogonalLoop=1;jettySize=auto;html=1;endArrow=none;endFill=0;" edge="1" parent="1" source="Pr53PB6UrvoUQkxMurR7-12">
          <mxGeometry relative="1" as="geometry">
            <mxPoint x="500" y="420" as="targetPoint" />
          </mxGeometry>
        </mxCell>
        <mxCell id="Pr53PB6UrvoUQkxMurR7-12" value="П9" style="ellipse;whiteSpace=wrap;html=1;aspect=fixed;" vertex="1" parent="1">
          <mxGeometry x="590" y="270" width="30" height="30" as="geometry" />
        </mxCell>
        <mxCell id="Pr53PB6UrvoUQkxMurR7-16" style="rounded=0;orthogonalLoop=1;jettySize=auto;html=1;entryX=0.5;entryY=0;entryDx=0;entryDy=0;endArrow=none;endFill=0;dashed=1;dashPattern=12 12;exitX=0.75;exitY=1;exitDx=0;exitDy=0;" edge="1" parent="1" source="Pr53PB6UrvoUQkxMurR7-1" target="Pr53PB6UrvoUQkxMurR7-6">
          <mxGeometry relative="1" as="geometry">
            <mxPoint x="299" y="210" as="sourcePoint" />
            <mxPoint x="295" y="300" as="targetPoint" />
          </mxGeometry>
        </mxCell>
        <mxCell id="Pr53PB6UrvoUQkxMurR7-17" style="rounded=0;orthogonalLoop=1;jettySize=auto;html=1;entryX=0.5;entryY=0;entryDx=0;entryDy=0;endArrow=none;endFill=0;dashed=1;dashPattern=12 12;exitX=0.25;exitY=1;exitDx=0;exitDy=0;" edge="1" parent="1" source="Pr53PB6UrvoUQkxMurR7-2" target="Pr53PB6UrvoUQkxMurR7-7">
          <mxGeometry relative="1" as="geometry">
            <mxPoint x="315" y="210" as="sourcePoint" />
            <mxPoint x="335" y="300" as="targetPoint" />
          </mxGeometry>
        </mxCell>
        <mxCell id="Pr53PB6UrvoUQkxMurR7-18" style="rounded=0;orthogonalLoop=1;jettySize=auto;html=1;endArrow=none;endFill=0;dashed=1;dashPattern=12 12;exitX=0.5;exitY=1;exitDx=0;exitDy=0;" edge="1" parent="1" source="Pr53PB6UrvoUQkxMurR7-2" target="Pr53PB6UrvoUQkxMurR7-8">
          <mxGeometry relative="1" as="geometry">
            <mxPoint x="409" y="230" as="sourcePoint" />
            <mxPoint x="395" y="300" as="targetPoint" />
          </mxGeometry>
        </mxCell>
        <mxCell id="Pr53PB6UrvoUQkxMurR7-19" style="rounded=0;orthogonalLoop=1;jettySize=auto;html=1;endArrow=none;endFill=0;dashed=1;dashPattern=12 12;exitX=0.75;exitY=1;exitDx=0;exitDy=0;entryX=0.5;entryY=0;entryDx=0;entryDy=0;" edge="1" parent="1" source="Pr53PB6UrvoUQkxMurR7-2" target="Pr53PB6UrvoUQkxMurR7-9">
          <mxGeometry relative="1" as="geometry">
            <mxPoint x="424" y="230" as="sourcePoint" />
            <mxPoint x="436" y="300" as="targetPoint" />
          </mxGeometry>
        </mxCell>
        <mxCell id="Pr53PB6UrvoUQkxMurR7-20" style="rounded=0;orthogonalLoop=1;jettySize=auto;html=1;endArrow=none;endFill=0;dashed=1;dashPattern=12 12;entryX=0.5;entryY=0;entryDx=0;entryDy=0;" edge="1" parent="1" source="Pr53PB6UrvoUQkxMurR7-3" target="Pr53PB6UrvoUQkxMurR7-10">
          <mxGeometry relative="1" as="geometry">
            <mxPoint x="434" y="240" as="sourcePoint" />
            <mxPoint x="446" y="310" as="targetPoint" />
          </mxGeometry>
        </mxCell>
        <mxCell id="Pr53PB6UrvoUQkxMurR7-21" style="rounded=0;orthogonalLoop=1;jettySize=auto;html=1;endArrow=none;endFill=0;dashed=1;dashPattern=12 12;entryX=0.5;entryY=0;entryDx=0;entryDy=0;exitX=0.5;exitY=1;exitDx=0;exitDy=0;" edge="1" parent="1" source="Pr53PB6UrvoUQkxMurR7-3" target="Pr53PB6UrvoUQkxMurR7-11">
          <mxGeometry relative="1" as="geometry">
            <mxPoint x="530" y="200" as="sourcePoint" />
            <mxPoint x="535" y="300" as="targetPoint" />
          </mxGeometry>
        </mxCell>
        <mxCell id="Pr53PB6UrvoUQkxMurR7-22" style="rounded=0;orthogonalLoop=1;jettySize=auto;html=1;endArrow=none;endFill=0;dashed=1;dashPattern=12 12;entryX=0.5;entryY=0;entryDx=0;entryDy=0;exitX=0.75;exitY=1;exitDx=0;exitDy=0;" edge="1" parent="1" source="Pr53PB6UrvoUQkxMurR7-3" target="Pr53PB6UrvoUQkxMurR7-12">
          <mxGeometry relative="1" as="geometry">
            <mxPoint x="540" y="200" as="sourcePoint" />
            <mxPoint x="575" y="290" as="targetPoint" />
          </mxGeometry>
        </mxCell>
        <mxCell id="Pr53PB6UrvoUQkxMurR7-23" value="Н1" style="ellipse;whiteSpace=wrap;html=1;aspect=fixed;" vertex="1" parent="1">
          <mxGeometry x="280" y="420" width="30" height="30" as="geometry" />
        </mxCell>
        <mxCell id="Pr53PB6UrvoUQkxMurR7-26" value="Н2" style="ellipse;whiteSpace=wrap;html=1;aspect=fixed;" vertex="1" parent="1">
          <mxGeometry x="400" y="430" width="30" height="30" as="geometry" />
        </mxCell>
        <mxCell id="Pr53PB6UrvoUQkxMurR7-27" value="Н3" style="ellipse;whiteSpace=wrap;html=1;aspect=fixed;" vertex="1" parent="1">
          <mxGeometry x="490" y="420" width="30" height="30" as="geometry" />
        </mxCell>
        <mxCell id="Pr53PB6UrvoUQkxMurR7-35" style="rounded=0;orthogonalLoop=1;jettySize=auto;html=1;endArrow=none;endFill=0;exitX=0;exitY=1;exitDx=0;exitDy=0;" edge="1" parent="1" source="Pr53PB6UrvoUQkxMurR7-9">
          <mxGeometry relative="1" as="geometry">
            <mxPoint x="320" y="370" as="targetPoint" />
            <mxPoint x="416" y="317" as="sourcePoint" />
          </mxGeometry>
        </mxCell>
        <mxCell id="Pr53PB6UrvoUQkxMurR7-37" style="rounded=0;orthogonalLoop=1;jettySize=auto;html=1;endArrow=none;endFill=0;exitX=0.5;exitY=1;exitDx=0;exitDy=0;" edge="1" parent="1" source="Pr53PB6UrvoUQkxMurR7-10">
          <mxGeometry relative="1" as="geometry">
            <mxPoint x="355" y="300" as="sourcePoint" />
            <mxPoint x="316" y="390" as="targetPoint" />
          </mxGeometry>
        </mxCell>
      </root>
    </mxGraphModel>
  </diagram>
</mxfile>
